<?xml version="1.0" encoding="utf-8" ?>
<svg xmlns="http://www.w3.org/2000/svg" width="660" height="200" viewBox="0 0 660 200">
  <defs>
    <!-- Glow filter for the eye icon -->
    <filter id="glow" x="-20%" y="-20%" width="140%" height="140%">
      <feGaussianBlur stdDeviation="3" result="blur"/>
      <feMerge>
        <feMergeNode in="blur"/>
        <feMergeNode in="SourceGraphic"/>
      </feMerge>
    </filter>
    <!-- Subtle shadow for text -->
    <filter id="textShadow" x="-5%" y="-5%" width="110%" height="110%">
      <feDropShadow dx="0" dy="1" stdDeviation="2" flood-color="#00B8EF" flood-opacity="0.3"/>
    </filter>
  </defs>

  <!-- Background -->
  <rect width="660" height="200" fill="#1a1a2e" rx="12"/>

  <!-- Eye icon (scaled down, left side) -->
  <g transform="translate(24, 16) scale(0.164)">
    <path fill="#2d2d3a" transform="scale(2 2)" d="M86.2101 363.134C84.4298 358.991 81.1973 354.504 79.0754 350.46C31.0523 258.937 58.007 147.169 144.422 89.0631C198.726 52.5488 266.975 45.1719 328.231 68.7902C440.757 112.176 488.745 243.756 433.862 349.744C431.89 353.592 428.681 357.902 427.166 361.816L427.005 362.237C425.372 373.878 421.89 382.707 408.508 384.532C400.605 397.963 374.292 418.231 361.731 426.213C284.649 475.197 177.487 462.717 113.686 396.986C110.428 393.625 105.112 388.524 102.873 384.532C91.8205 380.451 88.8827 374.198 86.2101 363.134Z"/>
    <path fill="#FE8E8D" opacity="0.9" transform="scale(2 2)" d="M86.2101 363.134C84.4298 358.991 81.1973 354.504 79.0754 350.46C31.0523 258.937 58.007 147.169 144.422 89.0631C198.726 52.5488 266.975 45.1719 328.231 68.7902C440.757 112.176 488.745 243.756 433.862 349.744C431.89 353.592 428.681 357.902 427.166 361.816L427.005 362.237C422.658 348.927 416.095 341.988 410.371 330.276L275.305 86.1533C269.114 78.3508 267.383 66.79 251.495 70.7065C243.139 72.7662 241.205 79.3438 237.228 86.1533L114.71 307.013C110.925 313.694 106.76 321.647 102.873 328.089C96.4228 341.705 89.6388 347.394 86.2101 363.134Z"/>
    <path fill="#FFCBBE" opacity="0.9" transform="scale(2 2)" d="M275.305 86.1533C278.486 86.024 289.406 88.0814 292.818 88.8049C392.357 109.91 452.375 218.384 416.927 314.701C415.126 319.593 412.884 325.755 410.371 330.276L275.305 86.1533Z"/>
    <path fill="#FFCBBE" opacity="0.9" transform="scale(2 2)" d="M102.873 328.089C101.775 326.768 100.003 321.961 99.2671 320.249C58.0413 224.365 116.917 109.96 218.556 89.195C224.309 88.0197 231.33 86.3911 237.228 86.1533L114.71 307.013C110.925 313.694 106.76 321.647 102.873 328.089Z"/>
    <path fill="#FE8E8D" opacity="0.9" transform="scale(2 2)" d="M102.873 384.532C117.709 384.367 133.278 384.43 148.129 384.532L361.37 384.532C376.887 384.528 393.027 384.308 408.508 384.532C400.605 397.963 374.292 418.231 361.731 426.213C284.649 475.197 177.487 462.717 113.686 396.986C110.428 393.625 105.112 388.524 102.873 384.532Z"/>
    <path fill="#FFCBBE" opacity="0.9" transform="scale(2 2)" d="M148.129 384.532L361.37 384.532C362.912 384.754 365.107 384.593 366.72 384.532C315.491 433.666 227.37 437.495 167.717 401.519C160.06 396.901 150.394 390.994 144.111 384.532C145.578 384.585 146.662 384.586 148.129 384.532Z"/>
    <path fill="#FEDCCD" transform="scale(2 2)" d="M246.285 229.475C299.629 229.338 339.381 243.691 376.074 285.476C373.09 289.565 367.812 293.955 364.102 297.43C340.437 319.604 310.323 335.278 278.218 340.486C274.613 341.071 270.613 341.355 267.1 342.231L266.797 342.309C260.023 342.087 253.692 342.573 246.702 342.064C203.221 338.895 165.483 319.103 136.986 286.461C143.092 277.131 157.05 265.467 165.999 258.85C191.356 239.586 214.901 232.215 246.285 229.475Z"/>
    <g filter="url(#glow)">
      <path fill="#5BCAF9" transform="scale(2 2)" d="M221.334 307.672C209.858 290.452 212.753 267.42 228.134 253.577C243.515 239.733 266.724 239.272 282.644 252.492C298.563 265.713 302.372 288.612 291.589 306.274C280.807 323.936 258.698 331.012 239.664 322.893C232.203 319.711 225.833 314.421 221.334 307.672Z"/>
      <path fill="#00B8EF" transform="scale(2 2)" d="M221.334 307.672C209.858 290.452 212.753 267.42 228.134 253.577C243.515 239.733 266.724 239.272 282.644 252.492C298.563 265.713 302.372 288.612 291.589 306.274C280.807 323.936 258.698 331.012 239.664 322.893C239.816 322.305 240.209 320.55 240.645 320.399C259.388 314.147 264.823 314.349 279.256 299.436C289.338 289.019 288.353 269.086 277.803 259.318C257.208 239.627 224.974 251.781 220.29 279.305C218.979 287.007 223.314 305.816 221.334 307.672Z"/>
    </g>
    <path fill="#1a1a2e" transform="scale(2 2)" d="M253.239 263.487C265.882 261.721 277.553 270.568 279.268 283.218C280.984 295.868 272.091 307.504 259.434 309.169C246.848 310.824 235.292 301.992 233.586 289.413C231.88 276.834 240.666 265.243 253.239 263.487Z"/>
    <path fill="#5BCAF9" opacity="0.8" transform="scale(2 2)" d="M240.124 118.049C242.743 118.01 246.377 120.001 245.074 122.725C240.161 132.988 234.167 143.002 228.626 152.924L193.281 216.81C192.033 219.072 184.606 234.035 183.476 234.628L182.893 234.373C180.859 233.115 179.073 231.976 176.909 230.931C187.222 208.96 202.315 184.383 214.28 163.091L237.771 120.257C238.368 119.181 239.064 118.628 240.124 118.049Z"/>
  </g>

  <!-- "CABALIST" text — shifted right for clearance from icon -->
  <text
    x="410"
    y="108"
    font-family="'SF Pro Display', 'Segoe UI', 'Helvetica Neue', Arial, sans-serif"
    font-size="62"
    font-weight="700"
    letter-spacing="8"
    text-anchor="middle"
    filter="url(#textShadow)"
  >
    <tspan fill="#e8e8e8">CABAL</tspan><tspan fill="#00B8EF">IST</tspan>
  </text>

  <!-- Tagline -->
  <text
    x="410"
    y="142"
    font-family="'SF Pro Text', 'Segoe UI', 'Helvetica Neue', Arial, sans-serif"
    font-size="16"
    font-weight="400"
    letter-spacing="4"
    fill="#888"
    text-anchor="middle"
  >OPINIONATED .CABAL MANAGEMENT</text>

  <!-- Thin accent line -->
  <line x1="260" y1="155" x2="560" y2="155" stroke="#00B8EF" stroke-width="1" opacity="0.4"/>

  <!-- Three tool badges -->
  <g font-family="'SF Mono', 'Cascadia Code', 'Fira Code', monospace" font-size="11" letter-spacing="1">
    <text x="350" y="177" fill="#5BCAF9" text-anchor="middle" opacity="0.7">TUI</text>
    <text x="390" y="177" fill="#555" text-anchor="middle">|</text>
    <text x="430" y="177" fill="#5BCAF9" text-anchor="middle" opacity="0.7">CLI</text>
    <text x="470" y="177" fill="#555" text-anchor="middle">|</text>
    <text x="510" y="177" fill="#5BCAF9" text-anchor="middle" opacity="0.7">LSP</text>
  </g>
</svg>
